<svg xmlns="http://www.w3.org/2000/svg" width="1920" height="1080" viewBox="0 0 1920 1080" role="img" aria-label="خلفية دافئة لتنمية الكتابة الإبداعية">
  <defs>
    <!-- Warm parchment base -->
    <linearGradient id="paper" x1="0" y1="0" x2="1" y2="0">
      <stop offset="0" stop-color="#f6ecd5"/>
      <stop offset="0.55" stop-color="#f1dfbf"/>
      <stop offset="1" stop-color="#ead2ad"/>
    </linearGradient>

    <!-- Soft vignette -->
    <radialGradient id="vignette" cx="70%" cy="45%" r="75%">
      <stop offset="0" stop-color="#000" stop-opacity="0"/>
      <stop offset="1" stop-color="#000" stop-opacity="0.22"/>
    </radialGradient>

    <!-- Subtle geometric watermark -->
    <pattern id="geo" width="120" height="120" patternUnits="userSpaceOnUse">
      <path d="M60 8 L92 28 L92 68 L60 88 L28 68 L28 28 Z" fill="none" stroke="#0f5f4a" stroke-opacity="0.10" stroke-width="2"/>
      <path d="M60 24 L78 34 L78 62 L60 72 L42 62 L42 34 Z" fill="none" stroke="#b7892f" stroke-opacity="0.08" stroke-width="2"/>
      <circle cx="60" cy="48" r="3" fill="#0f5f4a" fill-opacity="0.10"/>
    </pattern>

    <!-- Ink flow gradient -->
    <linearGradient id="ink" x1="0" y1="0" x2="1" y2="1">
      <stop offset="0" stop-color="#0f5f4a" stop-opacity="0.9"/>
      <stop offset="0.6" stop-color="#0f5f4a" stop-opacity="0.35"/>
      <stop offset="1" stop-color="#b7892f" stop-opacity="0.28"/>
    </linearGradient>

    <filter id="softBlur" x="-20%" y="-20%" width="140%" height="140%">
      <feGaussianBlur stdDeviation="6"/>
    </filter>

    <filter id="paperNoise" x="-20%" y="-20%" width="140%" height="140%">
      <feTurbulence type="fractalNoise" baseFrequency="0.9" numOctaves="2" stitchTiles="stitch" />
      <feColorMatrix type="matrix" values="
        1 0 0 0 0
        0 1 0 0 0
        0 0 1 0 0
        0 0 0 0.08 0"/>
    </filter>
  </defs>

  <!-- Base paper -->
  <rect width="1920" height="1080" fill="url(#paper)"/>

  <!-- Watermark geometry (kept subtle, and more on the right) -->
  <rect x="760" y="-40" width="1240" height="1160" fill="url(#geo)" opacity="0.9"/>

  <!-- Paper texture -->
  <rect width="1920" height="1080" filter="url(#paperNoise)" opacity="0.55"/>

  <!-- Right-side decorative calligraphic strokes (abstract, no readable text) -->
  <g opacity="0.30" filter="url(#softBlur)">
    <path d="M1280 260 C1460 150, 1650 170, 1760 260 C1620 290, 1500 340, 1400 430 C1560 380, 1700 390, 1820 470 C1680 520, 1520 560, 1400 640 C1540 620, 1700 650, 1825 720"
          fill="none" stroke="url(#ink)" stroke-width="22" stroke-linecap="round"/>
    <path d="M1220 520 C1340 470, 1500 470, 1600 520 C1500 560, 1390 620, 1320 700"
          fill="none" stroke="#0f5f4a" stroke-opacity="0.35" stroke-width="14" stroke-linecap="round"/>
  </g>

  <!-- Fountain pen nib silhouette (very subtle) -->
  <g transform="translate(1450 720) rotate(-18)" opacity="0.16">
    <path d="M110 0
             C70 10, 40 44, 35 90
             C28 160, 60 240, 110 310
             C160 240, 192 160, 185 90
             C180 44, 150 10, 110 0 Z"
          fill="#0f5f4a"/>
    <path d="M110 52
             C95 70, 92 95, 110 120
             C128 95, 125 70, 110 52 Z"
          fill="#f6ecd5" opacity="0.75"/>
    <circle cx="110" cy="170" r="10" fill="#f6ecd5" opacity="0.65"/>
    <path d="M110 310 L110 380" stroke="#0f5f4a" stroke-width="10" stroke-linecap="round" opacity="0.9"/>
  </g>

  <!-- Clean left-side readability gradient -->
  <linearGradient id="leftFade" x1="0" y1="0" x2="1" y2="0">
    <stop offset="0" stop-color="#f7efe0" stop-opacity="0.92"/>
    <stop offset="0.55" stop-color="#f7efe0" stop-opacity="0.55"/>
    <stop offset="1" stop-color="#f7efe0" stop-opacity="0"/>
  </linearGradient>
  <rect x="0" y="0" width="1200" height="1080" fill="url(#leftFade)"/>

  <!-- Vignette -->
  <rect width="1920" height="1080" fill="url(#vignette)"/>
</svg>

